<svg width="22" height="23" viewBox="0 0 22 23" fill="none" xmlns="http://www.w3.org/2000/svg">
<path d="M11 0.893311L13.1213 3.01463L11 5.13595L8.87868 3.01463L11 0.893311Z" fill="white"/>
<path d="M11 5.13595L13.1213 7.25727L11 9.37859L8.87868 7.25727L11 5.13595Z" fill="white"/>
<path d="M11 9.37859L13.1213 11.4999L11 13.6212L8.87868 11.4999L11 9.37859Z" fill="white"/>
<path d="M15.2426 9.37859L17.364 11.4999L15.2426 13.6212L13.1213 11.4999L15.2426 9.37859Z" fill="white"/>
<path d="M19.4853 9.37859L21.6066 11.4999L19.4853 13.6212L17.364 11.4999L19.4853 9.37859Z" fill="white"/>
<path d="M11 13.6212L13.1213 15.7426L11 17.8639L8.87868 15.7426L11 13.6212Z" fill="white"/>
<path d="M11 17.8639L13.1213 19.9852L11 22.1065L8.87868 19.9852L11 17.8639Z" fill="white"/>
<path d="M2.51472 9.37859L4.63604 11.4999L2.51472 13.6212L0.393398 11.4999L2.51472 9.37859Z" fill="white"/>
<path d="M6.75736 9.37859L8.87868 11.4999L6.75736 13.6212L4.63604 11.4999L6.75736 9.37859Z" fill="white"/>
</svg>
