<svg width="225" height="228" viewBox="0 0 225 228" fill="none" xmlns="http://www.w3.org/2000/svg">
<path d="M85.7695 48.2272H89.7543V44.2425H85.7695V48.2272Z" fill="white"/>
<path d="M125.145 76.1196H129.129V72.1349H125.145V76.1196Z" fill="white"/>
<path d="M121.119 80.1041H117.191V84.0889H121.176V80.1041H125.104V76.1194H121.119V80.1041Z" fill="white"/>
<path d="M59.3812 48.2152H55.3965V52.2H59.3812V48.2152Z" fill="white"/>
<path d="M67.3301 52.2117H71.3148V48.2269H67.3301V52.2117Z" fill="white"/>
<path d="M47.416 76.1196H51.4007V72.1349H47.416V76.1196Z" fill="white"/>
<path d="M47.4027 68.1503H43.418V72.135H47.4027V68.1503Z" fill="white"/>
<path d="M51.5355 92.0348H47.5508V96.0195H51.5355V92.0348Z" fill="white"/>
<path d="M169.067 92.0582H165.082V96.043H169.067V92.0582Z" fill="white"/>
<path d="M174.613 44.3116H174.525H174.501H170.644V40.3269H174.613V44.3116ZM176.556 76.1195V80.1042H173.051H172.621H169.066V84.0889H168.703H165.081V80.1042H165.178H169.066V76.1195H172.621H173.051H176.556ZM133.069 72.135V76.1195V80.1042V84.0889H129.677V88.0734H129.648H125.664H121.679V92.0582H121.447H121.39H117.548H117.462H113.563V96.0427H110.133V92.0582V88.0734V84.0889H113.205V80.1042H113.464H117.134V76.1195H117.191V76.0868H121.119V72.135H125.103V68.1503H125.16V68.1175H129.145V72.1021H133.069V72.135ZM114.195 115.966H110.283V111.981H113.881H114.117H114.195V115.966ZM109.568 40.2578H113.206H113.411V44.2423H113.263H109.568V40.2578ZM184.368 52.3138V56.2983H180.541V60.181H176.556V56.1963H178.497V52.2808H180.49V48.2963H182.44V36.3423H186.422V32.3576H182.437V36.3423H178.456V40.3269H174.617V36.3423H174.614V32.3576H176.472V28.3729H178.465V24.3884H180.403V16.419H176.418V20.4037H172.458V24.3884H166.535V28.3729H160.558V32.3576H154.715V36.3423H150.745V40.3269H146.785V44.3116H142.959V48.2963H139.078V52.2462H135.739V56.1963H129.145V52.2116H125.16V48.2271H133.13V44.2423H129.145V40.2578H133.13V36.2731H129.145V28.3039H125.16V32.2884H121.176V36.2731H105.38V40.2578H89.7552V44.2423H97.7244V48.2271H101.709V52.2116H105.551V56.1963H101.709V60.181H90.4388V64.1655H97.8405V68.1503H93.966V72.135H89.8111V76.1195H86.3115V80.1042H82.068V84.0889H80.0757V88.0734H71.3138V84.0889H67.3291V80.1042H63.3443V68.1503H67.3291V64.1655H75.2983V52.2116H71.3138V56.1963H63.3443V52.2116H59.3598V64.1655H53.394V60.181H51.3511V56.1963H47.3664V60.181H49.4093V64.1655H51.4016V72.135H55.3751V76.1195H51.4016V80.1042H55.3751V84.0889H63.3443V88.0734H67.3291V92.0582H71.3138V96.0427H75.2972V104.012H79.2228V115.966L63.3802 115.943V111.958H59.4523V100.004H55.526V96.0193H51.5413V103.989H55.4678V107.973H51.5413V107.95V103.989H47.5568V107.95H43.6312V103.989H39.6465V107.973H43.5807V111.934H51.4839V111.958V115.943H47.5368V119.927H43.5721V123.912H47.5568V119.927H55.411V123.912H63.3787V127.897H59.3955V131.881H63.3802V127.897H67.3635V123.912H71.3465V119.951H83.2076V115.966H90.5023V119.951H94.4788V123.935H98.4348V127.92H103.33V131.905H100.357H86.2298V135.889H79.2773V139.874H74.8516V143.859V143.874H71.0349V147.859H73.0274V151.828H74.9728V155.796H76.926V167.75H74.9728V171.735H61.8129V167.75H57.8284V163.765H55.836V159.781H49.859V163.765H45.8745V167.75H49.859V171.735H51.8514V175.719H49.859V179.704H57.8284V183.688H61.8129V187.673H65.7977V183.688H69.7822V179.704H73.7669V183.688H77.7516V175.719H85.7208V171.735H86.8093V167.75H92.4095V163.765H95.8132V159.781H91.8285V155.796H90.3632V151.828H92.3554V147.843L94.33 147.835V143.859H114.827V147.843H113.165V151.811H111.974V155.796H109.4V159.781H108.031V163.765H106.41V167.75V171.735H110.354H110.363V175.719H113.476V179.704H114.812V183.688H116.243L116.242 187.673V195.642H105.188V188.016H93.2343V192H89.2496V195.985H101.204V203.612H97.2188V211.581H105.188V207.596H109.173V203.612H111.835V211.581H115.819V207.596H122.84V191.658H126.589V187.673H127.757V183.688H130.396V179.704H132.947V175.719H137.736V171.735H137.767H141.674V167.75H145.616V163.765H141.631V167.75H133.783V163.765H131.528L131.526 151.828H132.717V147.843H134.38V143.859H139.034V147.843H141.631V151.828H143.623V155.796H146.688V159.781H150.593V163.765H158.562V159.781H162.308V155.796H163.785V151.828V147.843H162.967V143.859H161.929V139.874H160.316V135.889H158.833V131.905H157.81V123.935H161.758V119.951H165.743V115.966H166.952V111.981H168.944V104.012H164.959V107.997H160.975V111.981H154.998V115.966H152.004V119.951H150.012V123.935H151.422V127.92H153.825V131.905H154.848V135.889H156.331V139.874H157.945V143.859H158.983V147.843H159.801V151.828V155.796H158.323V159.781H150.672V155.796H147.608V151.811H145.616V147.843H143.018V143.859H139.453V139.874H135.882V135.889H127.942V131.905H122.941V127.92H118.037V123.935H114.217V115.966H121.551V119.951H125.536V115.966H121.733V111.981H121.765H125.545V115.966H133.476V119.951H137.461V115.966H133.515V111.981H141.631V107.997H145.616V104.012H149.234V100.027H149.248H149.272H153.257V96.0427H153.267H161.097V100.027H165.081V96.0427H161.104V92.0582H165.081V88.0734H172.687V84.0889H176.606V80.1042H180.541V76.1195H176.606V72.135H180.541V68.1503H176.556V72.135H173.051V68.1503H176.556V64.1655H180.541V60.283H184.526V56.2983H188.352V52.3138H184.368Z" fill="white"/>
<path d="M184.387 12.4345H180.402V16.4192H184.387V12.4345Z" fill="white"/>
<path d="M153.268 104.012H157.252V100.027H153.268V104.012Z" fill="white"/>
<path d="M145.616 111.981H141.631V115.966H145.616V111.981Z" fill="white"/>
<path d="M95.832 159.781H99.8168V155.796H95.832V159.781Z" fill="white"/>
<path d="M81.7367 183.688H77.752V187.673H81.7367V183.688Z" fill="white"/>
<path d="M57.8281 191.658H61.8128V187.673H57.8281V191.658Z" fill="white"/>
<path d="M41.8906 171.734H45.8753V167.75H41.8906V171.734Z" fill="white"/>
<path d="M45.875 183.688H49.8597V179.704H45.875V183.688Z" fill="white"/>
<path d="M85.2637 199.97H89.2484V195.985H85.2637V199.97Z" fill="white"/>
<path d="M93.2324 215.566H97.2171V211.581H93.2324V215.566Z" fill="white"/>
<path d="M119.805 211.581H115.82V215.566H119.805V211.581Z" fill="white"/>
<path d="M168.984 104.012H172.969V100.027H168.984V104.012Z" fill="white"/>
<path d="M81.7871 56.1963H101.71V52.2116H81.7871V56.1963Z" fill="white"/>
<path d="M77.8008 52.2117H81.7855V48.2269H77.8008V52.2117Z" fill="white"/>
<path d="M133.129 24.3192H129.145V28.304H133.129V24.3192Z" fill="white"/>
</svg>
