<svg width="50" height="30" viewBox="0 0 50 30" fill="none" xmlns="http://www.w3.org/2000/svg">
<path d="M4.58454 21.8177H12.7459V24.5441H10.0286V27.2706H7.30609V24.5441H4.58454V21.8177ZM15.4692 21.818H18.1967V21.8177H23.6391V24.5409H20.9158V27.2706H18.1925L16.8309 27.2687V24.5409H15.4692V21.818ZM23.6391 16.3552H26.3624V16.3652H26.3622V19.09H23.6391V16.3552ZM34.5303 21.8177V24.5446H31.8079V27.2706H29.0878V24.5479H26.3645L26.3624 24.5432V21.8177H34.5303ZM37.2536 21.8177H45.4155V24.545L45.4162 24.5479V27.2706H39.9765V24.5446H37.2536V21.8177ZM1.86097 29.9991L4.58408 29.9983V30H10.0294V29.9983H15.4692V30H18.1925V29.9983L31.8089 30V29.9983H34.5303V30H37.2555V29.9983H42.6987V30H48.1371L48.1383 13.6374H49.5V10.9097H48.1387V5.45891H45.4154V6.80753H44.0538V9.53527H45.4154V10.8992H44.0551V9.5505H41.3318V10.8992H39.9569V13.6269H41.3318V14.9908H44.0551V13.6269H45.4154V13.6365H45.4151V16.3643H45.4154V16.3662H44.0499V19.09H37.2536V16.3652H34.5303V19.09H30.4471V16.3652H29.0857V13.6375L26.3624 13.6274V8.18324H27.7262V10.8997H30.4494V8.18324H31.8089V5.45549H30.4473V4.09165H27.724V5.45549H26.3624V4.09165H27.724V1.36385H26.3624V0H23.6391V1.36385H22.2774V4.09165H23.6391V5.45549H22.2774V4.09165H19.5542V5.45549H18.1925V8.18324H19.5645V10.8997H22.2878V8.18324H23.6391V13.6274L20.9158 13.6375V16.3652H18.2029V19.09L15.4754 19.0903V17.7301H12.7521L12.7509 19.0903L7.30695 19.09L7.30609 16.3634H4.58454V13.6379H5.94448V15.0018H8.66776V13.6379H10.0294V10.9101H8.66776V9.54581H5.94598V10.9081H4.58605V9.54564H5.94575V6.81974H4.58454V5.45584H1.86126L1.86121 10.9097H0.5V13.6374H1.86121L1.86097 29.9991Z" fill="white"/>
</svg>
