<svg width="100" height="100" viewBox="0 0 100 100" fill="none" xmlns="http://www.w3.org/2000/svg">
<path d="M100 50C100 22.3858 77.6142 0 50 0C22.3858 0 0 22.3858 0 50C0 77.6142 22.3858 100 50 100C77.6142 100 100 77.6142 100 50Z" fill="#1C1B79"/>
<path d="M75 46.9374H71.428V43.3747H67.856V39.8121H60.7132V43.3747H57.1412V46.9374H53.5692V39.8121H57.1412V36.2438H60.7086V29.1185H57.1366V25.5559H53.5646V22H46.4218V25.5559H42.8498V29.1185H39.2857V36.2438H42.8498V39.8121H46.4218V46.9374H42.8588V43.3747H39.2812V39.8121H32.1383V43.3747H28.572V46.9374H25V54.0626H28.572V57.6253H32.144V61.1879H39.2868V54.0626H46.4308V61.1879H39.2812V68.3121H46.4252V79H53.5692V68.3121H60.7132V61.1879H67.856V57.6253H71.428V54.0626H75V46.9374ZM53.5726 61.1879V54.0626H60.7165V61.1879H53.5726Z" fill="white"/>
</svg>
