<svg width="100" height="100" viewBox="0 0 100 100" fill="none" xmlns="http://www.w3.org/2000/svg">
<rect width="100" height="100" rx="50" fill="#1C1B79"/>
<path d="M28.25 28.25H71.75V71.75H28.25V28.25ZM33.0833 33.0833V37.9167H37.9167V33.0833H33.0833ZM42.75 33.0833V47.5833H57.25V33.0833H42.75ZM62.0833 33.0833V37.9167H66.9167V33.0833H62.0833ZM66.9167 42.75H62.0833V47.5833H66.9167V42.75ZM66.9167 52.4167H62.0833V57.25H66.9167V52.4167ZM66.9167 62.0833H62.0833V66.9167H66.9167V62.0833ZM57.25 66.9167V52.4167H42.75V66.9167H57.25ZM37.9167 66.9167V62.0833H33.0833V66.9167H37.9167ZM33.0833 57.25H37.9167V52.4167H33.0833V57.25ZM33.0833 47.5833H37.9167V42.75H33.0833V47.5833Z" fill="white"/>
</svg>
