<svg width="28" height="36" viewBox="0 0 28 36" fill="none" xmlns="http://www.w3.org/2000/svg">
<path d="M12 28H16V32H12V28Z" fill="white"/>
<path d="M12 24H16V28H12V24Z" fill="white"/>
<path d="M12 20H16V24H12V20Z" fill="white"/>
<path d="M16 20H20V24H16V20Z" fill="white"/>
<path d="M20 20H24V24H20V20Z" fill="white"/>
<path d="M24 20H28V24H24V20Z" fill="white"/>
<path d="M0 16H4V20H0V16Z" fill="white"/>
<path d="M24 16H28V20H24V16Z" fill="white"/>
<path d="M0 20H4V24H0V20Z" fill="white"/>
<path d="M4 8H8V12H4V8Z" fill="white"/>
<path d="M20 8H24V12H20V8Z" fill="white"/>
<path d="M16 4H20V8H16V4Z" fill="white"/>
<path d="M8 4H12V8H8V4Z" fill="white"/>
<path d="M12 0H16V4H12V0Z" fill="white"/>
<path d="M20 24H24V28H20V24Z" fill="white"/>
<path d="M4 24H8V28H4V24Z" fill="white"/>
<path d="M0 24H4V28H0V24Z" fill="white"/>
<path d="M8 16H12V20H8V16Z" fill="white"/>
<path d="M12 16H16V20H12V16Z" fill="white"/>
<path d="M12 12H16V16H12V12Z" fill="white"/>
<path d="M8 12H12V16H8V12Z" fill="white"/>
<path d="M16 12H20V16H16V12Z" fill="white"/>
<path d="M20 16H24V20H20V16Z" fill="white"/>
<path d="M4 16H8V20H4V16Z" fill="white"/>
<path d="M12 8H16V12H12V8Z" fill="white"/>
<path d="M16 8H20V12H16V8Z" fill="white"/>
<path d="M20 12H24V16H20V12Z" fill="white"/>
<path d="M4 12H8V16H4V12Z" fill="white"/>
<path d="M8 8H12V12H8V8Z" fill="white"/>
<path d="M12 4H16V8H12V4Z" fill="white"/>
<path d="M16 16H20V20H16V16Z" fill="white"/>
<path d="M24 24H28V28H24V24Z" fill="white"/>
<path d="M8 20H12V24H8V20Z" fill="white"/>
<path d="M4 20H8V24H4V20Z" fill="white"/>
<path d="M12 32H16V36H12V32Z" fill="white"/>
<path d="M16 32H20V36H16V32Z" fill="white"/>
<path d="M8 32H12V36H8V32Z" fill="white"/>
</svg>
