<svg width="100" height="100" viewBox="0 0 100 100" fill="none" xmlns="http://www.w3.org/2000/svg">
<path d="M100 50C100 22.3858 77.6142 0 50 0C22.3858 0 0 22.3858 0 50C0 77.6142 22.3858 100 50 100C77.6142 100 100 77.6142 100 50Z" fill="#1C1B79"/>
<path d="M76.9627 47.5451H72.122H72.0942V42.6363H67.1724H67.1671H67.1585V37.7275H62.2357V32.8176H57.4025H57.3331V27.9088H52.4796V23H47.5578V27.9088H42.6349V32.8176H37.7131V37.7275H37.664H32.7913V42.6363H27.8834V47.5451H27.878H23.0374H23V52.4549H23.0374H27.878H27.9058V57.3637H32.8276H32.8329H32.8425V62.2725H37.7643V67.1824H42.5986H42.6669V72.0912H47.5204V77H52.4422V72.0912H57.3651V67.1824H62.2869V62.2725H62.336H67.2087V57.3637H72.1166V52.4549H72.122H76.9627H77V47.5451H76.9627Z" fill="white"/>
</svg>
