<svg width="100" height="100" viewBox="0 0 100 100" fill="none" xmlns="http://www.w3.org/2000/svg">
<path d="M100 50C100 22.3858 77.6142 0 50 0C22.3858 0 0 22.3858 0 50C0 77.6142 22.3858 100 50 100C77.6142 100 100 77.6142 100 50Z" fill="#1C1B79"/>
<path d="M41.5852 58.5867H33.1699V67.002H41.5852V58.5867Z" fill="white"/>
<path d="M41.5859 67.0022V75.4186H50.0012H58.4165V67.0022H50.0012H41.5859Z" fill="white"/>
<path d="M66.8313 58.5867H58.416V67.002H66.8313V58.5867Z" fill="white"/>
<path d="M66.8324 41.7937V33.415H58.416V41.8314H66.8324V50.1713V50.209V58.5866H75.2477V50.209V50.1713V41.7937H66.8324Z" fill="white"/>
<path d="M33.1703 50.1713V41.8314H41.5856V33.415H33.1703V41.7937H24.7539V50.1713V50.209V58.5866H33.1703V50.209V50.1713Z" fill="white"/>
<path d="M58.4165 33.4153V25H50.0012H41.5859V33.4153H50.0012H58.4165Z" fill="white"/>
</svg>
