<svg width="238" height="238" viewBox="0 0 238 238" fill="none" xmlns="http://www.w3.org/2000/svg">
<path d="M148.466 50.3423H144.306V46.1828H148.466V50.3423Z" fill="#1C1B79"/>
<path d="M107.365 79.458H103.206V75.2985H107.365V79.458Z" fill="#1C1B79"/>
<path d="M111.567 83.6174H115.667V87.7769H111.508V83.6174H107.408V79.4579H111.567V83.6174Z" fill="#1C1B79"/>
<path d="M176.012 50.3298H180.172V54.4893H176.012V50.3298Z" fill="#1C1B79"/>
<path d="M167.717 54.502H163.557V50.3425H167.717V54.502Z" fill="#1C1B79"/>
<path d="M188.502 79.458H184.342V75.2985H188.502V79.458Z" fill="#1C1B79"/>
<path d="M188.516 71.1393H192.676V75.2988H188.516V71.1393Z" fill="#1C1B79"/>
<path d="M184.203 96.0715H188.362V100.231H184.203V96.0715Z" fill="#1C1B79"/>
<path d="M61.5182 96.0959H65.6777V100.255H61.5182V96.0959Z" fill="#1C1B79"/>
<path d="M55.727 46.255H55.8189H55.8442H59.8701V42.0955H55.727V46.255ZM53.6987 79.458V83.6175H57.3581H57.8068H61.5174V87.777H61.8967H65.6769V83.6175H65.5755H61.5174V79.458H57.8068H57.3581H53.6987ZM99.0937 75.2987V79.458V83.6175V87.777H102.634V91.9362H102.664H106.823H110.983V96.0957H111.225H111.285H115.295H115.385H119.455V100.255H123.035V96.0957V91.9362V87.777H119.828V83.6175H119.558H115.727V79.458H115.668V79.4238H111.568V75.2987H107.408V71.1392H107.349V71.1051H103.189V75.2643H99.0937V75.2987ZM118.795 121.052H122.879V116.893H119.123H118.877H118.795V121.052ZM123.625 42.0234H119.827H119.614V46.1827H119.767H123.625V42.0234ZM45.5448 54.6081V58.7674H49.5392V62.8204H53.6987V58.661H51.6724V54.5738H49.5925V50.4145H47.5567V37.9362H43.4001V33.7767H47.5596V37.9362H51.716V42.0955H55.7232V37.9362H55.7263V33.7767H53.7862V29.6172H51.7063V25.458H49.6831V17.139H53.8426V21.2985H57.9767V25.458H64.1594V29.6172H70.3986V33.7767H76.4982V37.9362H80.642V42.0955H84.776V46.255H88.7693V50.4145H92.8206V54.5376H96.3064V58.661H103.189V54.5015H107.349V50.3422H99.03V46.1827H103.189V42.0234H99.03V37.8639H103.189V29.5452H107.349V33.7045H111.508V37.8639H127.997V42.0234H144.307V46.1827H135.988V50.3422H131.829V54.5015H127.818V58.661H131.829V62.8204H143.593V66.9797H135.867V71.1392H139.911V75.2987H144.248V79.458H147.902V83.6175H152.331V87.777H154.411V91.9362H163.557V87.777H167.717V83.6175H171.876V71.1392H167.717V66.9797H159.398V54.5015H163.557V58.661H171.876V54.5015H176.035V66.9797H182.263V62.8204H184.395V58.661H188.555V62.8204H186.422V66.9797H184.343V75.2987H180.195V79.458H184.343V83.6175H180.195V87.777H171.876V91.9362H167.717V96.0957H163.557V100.255H159.399V108.574H155.301V121.052L171.839 121.028V116.868H175.939V104.39H180.037V100.231H184.197V108.55H180.098V112.709H184.197V112.684V108.55H188.356V112.684H192.454V108.55H196.613V112.709H192.506V116.844H184.257V116.868V121.028H188.377V125.187H192.516V129.347H188.356V125.187H180.157V129.347H171.84V133.506H175.998V137.665H171.839V133.506H167.681V129.347H163.523V125.212H151.142V121.052H143.527V125.212H139.376V129.371H135.247V133.53H130.136V137.69H133.24H147.987V141.849H155.244V146.009H159.864V150.168V150.184H163.848V154.344H161.768V158.487H159.738V162.629H157.699V175.107H159.738V179.267H173.475V175.107H177.634V170.948H179.714V166.789H185.953V170.948H190.112V175.107H185.953V179.267H183.873V183.426H185.953V187.586H177.634V191.745H173.475V195.904H169.315V191.745H165.156V187.586H160.996V191.745H156.837V183.426H148.518V179.267H147.382V175.107H141.536V170.948H137.983V166.789H142.143V162.629H143.672V158.487H141.593V154.327L139.531 154.319V150.168H118.135V154.327H119.871V158.47H121.113V162.629H123.8V166.789H125.229V170.948H126.921V175.107V179.267H122.805H122.795V183.426H119.545V187.586H118.151V191.745H116.657L116.659 195.904V204.223H128.197V196.262H140.675V200.421H144.835V204.581H132.356V212.542H136.516V220.861H128.197V216.701H124.038V212.542H121.259V220.861H117.099V216.701H109.771V200.064H105.858V195.904H104.639V191.745H101.884V187.586H99.2204V183.426H94.2219V179.267H94.1889H90.1114V175.107H85.9964V170.948H90.1557V175.107H98.3481V170.948H100.702L100.703 158.487H99.4608V154.327H97.7252V150.168H92.8671V154.327H90.1557V158.487H88.076V162.629H84.8773V166.789H80.8009V170.948H72.4819V166.789H68.5717V162.629H67.03V158.487V154.327H67.8839V150.168H68.967V146.009H70.6515V141.849H72.1994V137.69H73.2671V129.371H69.1458V125.212H64.9863V121.052H63.7244V116.893H61.6448V108.574H65.8041V112.733H69.9635V116.893H76.2027V121.052H79.3275V125.212H81.4074V129.371H79.9358V133.53H77.4266V137.69H76.3589V141.849H74.8108V146.009H73.1265V150.168H72.0432V154.327H71.1892V158.487V162.629H72.7312V166.789H80.7178V162.629H83.9165V158.47H85.9964V154.327H88.7078V150.168H92.429V146.009H96.1566V141.849H104.446V137.69H109.666V133.53H114.785V129.371H118.772V121.052H111.117V125.212H106.957V121.052H110.926V116.893H110.893H106.947V121.052H98.6681V125.212H94.5086V121.052H98.628V116.893H90.1557V112.733H85.9964V108.574H82.2195V104.414H82.2047H82.1794H78.0201V100.255H78.0095H69.8364V104.414H65.6769V100.255H69.8285V96.0957H65.6769V91.9362H57.7372V87.777H53.6471V83.6175H49.5392V79.458H53.6471V75.2987H49.5392V71.1392H53.6987V75.2987H57.3581V71.1392H53.6987V66.9797H49.5392V62.9269H45.3797V58.7674H41.3853V54.6081H45.5448Z" fill="#1C1B79"/>
<path d="M45.5241 12.9802H49.6836V17.1396H45.5241V12.9802Z" fill="#1C1B79"/>
<path d="M78.0098 108.574H73.8503V104.415H78.0098V108.574Z" fill="#1C1B79"/>
<path d="M85.9968 116.893H90.1562V121.052H85.9968V116.893Z" fill="#1C1B79"/>
<path d="M137.964 166.789H133.804V162.629H137.964V166.789Z" fill="#1C1B79"/>
<path d="M152.677 191.745H156.837V195.905H152.677V191.745Z" fill="#1C1B79"/>
<path d="M177.634 200.064H173.474V195.904H177.634V200.064Z" fill="#1C1B79"/>
<path d="M194.272 179.267H190.113V175.107H194.272V179.267Z" fill="#1C1B79"/>
<path d="M190.111 191.745H185.952V187.586H190.111V191.745Z" fill="#1C1B79"/>
<path d="M148.994 208.74H144.835V204.581H148.994V208.74Z" fill="#1C1B79"/>
<path d="M140.676 225.021H136.516V220.861H140.676V225.021Z" fill="#1C1B79"/>
<path d="M112.939 220.861H117.099V225.021H112.939V220.861Z" fill="#1C1B79"/>
<path d="M61.6016 108.574H57.4421V104.414H61.6016V108.574Z" fill="#1C1B79"/>
<path d="M152.625 58.6611H131.828V54.5016H152.625V58.6611Z" fill="#1C1B79"/>
<path d="M156.786 54.5015H152.627V50.342H156.786V54.5015Z" fill="#1C1B79"/>
<path d="M99.03 25.3859H103.189V29.5454H99.03V25.3859Z" fill="#1C1B79"/>
</svg>
