<svg width="149" height="149" viewBox="0 0 149 149" fill="none" xmlns="http://www.w3.org/2000/svg">
<mask id="mask0_2006_460" style="mask-type:alpha" maskUnits="userSpaceOnUse" x="0" y="0" width="149" height="149">
<rect width="149" height="149" fill="#D9D9D9"/>
</mask>
<g mask="url(#mask0_2006_460)">
<path d="M62.0833 96.7072L96.7072 74.5L62.0833 52.2928V96.7072ZM74.5202 130.375C66.7939 130.375 59.5296 128.909 52.7274 125.976C45.9261 123.044 40.0096 119.064 34.9778 114.038C29.9459 109.011 25.9627 103.1 23.0283 96.3037C20.0928 89.5087 18.625 82.2475 18.625 74.5202C18.625 66.7939 20.0912 59.5296 23.0236 52.7274C25.956 45.9261 29.9355 40.0096 34.9622 34.9777C39.9889 29.9459 45.9003 25.9627 52.6963 23.0283C59.4914 20.0928 66.7525 18.625 74.4798 18.625C82.2061 18.625 89.4704 20.0912 96.2726 23.0236C103.074 25.956 108.99 29.9356 114.022 34.9622C119.054 39.9889 123.037 45.9003 125.972 52.6963C128.907 59.4914 130.375 66.7525 130.375 74.4798C130.375 82.2061 128.909 89.4704 125.976 96.2726C123.044 103.074 119.064 108.99 114.038 114.022C109.011 119.054 103.1 123.037 96.3037 125.972C89.5087 128.907 82.2475 130.375 74.5202 130.375ZM74.5 124.167C88.3653 124.167 100.109 119.355 109.732 109.732C119.355 100.109 124.167 88.3653 124.167 74.5C124.167 60.6347 119.355 48.8906 109.732 39.2677C100.109 29.6448 88.3653 24.8333 74.5 24.8333C60.6347 24.8333 48.8906 29.6448 39.2677 39.2677C29.6448 48.8906 24.8333 60.6347 24.8333 74.5C24.8333 88.3653 29.6448 100.109 39.2677 109.732C48.8906 119.355 60.6347 124.167 74.5 124.167Z" fill="white"/>
</g>
</svg>
